G04 #@! TF.GenerationSoftware,KiCad,Pcbnew,5.0.2-bee76a0~70~ubuntu16.04.1*
G04 #@! TF.CreationDate,2022-08-11T15:43:15+02:00*
G04 #@! TF.ProjectId,QIC02EMU,51494330-3245-44d5-952e-6b696361645f,rev?*
G04 #@! TF.SameCoordinates,Original*
G04 #@! TF.FileFunction,Legend,Top*
G04 #@! TF.FilePolarity,Positive*
%FSLAX46Y46*%
G04 Gerber Fmt 4.6, Leading zero omitted, Abs format (unit mm)*
G04 Created by KiCad (PCBNEW 5.0.2-bee76a0~70~ubuntu16.04.1) date tor 11 aug 2022 15:43:15*
%MOMM*%
%LPD*%
G01*
G04 APERTURE LIST*
%ADD10C,0.300000*%
%ADD11C,0.200000*%
%ADD12C,0.120000*%
%ADD13C,0.150000*%
G04 APERTURE END LIST*
D10*
X109712962Y-149597008D02*
X109570105Y-149525580D01*
X109427248Y-149382722D01*
X109212962Y-149168437D01*
X109070105Y-149097008D01*
X108927248Y-149097008D01*
X108998677Y-149454151D02*
X108855820Y-149382722D01*
X108712962Y-149239865D01*
X108641534Y-148954151D01*
X108641534Y-148454151D01*
X108712962Y-148168437D01*
X108855820Y-148025580D01*
X108998677Y-147954151D01*
X109284391Y-147954151D01*
X109427248Y-148025580D01*
X109570105Y-148168437D01*
X109641534Y-148454151D01*
X109641534Y-148954151D01*
X109570105Y-149239865D01*
X109427248Y-149382722D01*
X109284391Y-149454151D01*
X108998677Y-149454151D01*
X110284391Y-149454151D02*
X110284391Y-147954151D01*
X111855820Y-149311294D02*
X111784391Y-149382722D01*
X111570105Y-149454151D01*
X111427248Y-149454151D01*
X111212962Y-149382722D01*
X111070105Y-149239865D01*
X110998677Y-149097008D01*
X110927248Y-148811294D01*
X110927248Y-148597008D01*
X110998677Y-148311294D01*
X111070105Y-148168437D01*
X111212962Y-148025580D01*
X111427248Y-147954151D01*
X111570105Y-147954151D01*
X111784391Y-148025580D01*
X111855820Y-148097008D01*
X112498677Y-148882722D02*
X113641534Y-148882722D01*
X114641534Y-147954151D02*
X114784391Y-147954151D01*
X114927248Y-148025580D01*
X114998677Y-148097008D01*
X115070105Y-148239865D01*
X115141534Y-148525580D01*
X115141534Y-148882722D01*
X115070105Y-149168437D01*
X114998677Y-149311294D01*
X114927248Y-149382722D01*
X114784391Y-149454151D01*
X114641534Y-149454151D01*
X114498677Y-149382722D01*
X114427248Y-149311294D01*
X114355820Y-149168437D01*
X114284391Y-148882722D01*
X114284391Y-148525580D01*
X114355820Y-148239865D01*
X114427248Y-148097008D01*
X114498677Y-148025580D01*
X114641534Y-147954151D01*
X115712962Y-148097008D02*
X115784391Y-148025580D01*
X115927248Y-147954151D01*
X116284391Y-147954151D01*
X116427248Y-148025580D01*
X116498677Y-148097008D01*
X116570105Y-148239865D01*
X116570105Y-148382722D01*
X116498677Y-148597008D01*
X115641534Y-149454151D01*
X116570105Y-149454151D01*
X118355820Y-148668437D02*
X118855820Y-148668437D01*
X119070105Y-149454151D02*
X118355820Y-149454151D01*
X118355820Y-147954151D01*
X119070105Y-147954151D01*
X119712962Y-149454151D02*
X119712962Y-148454151D01*
X119712962Y-148597008D02*
X119784391Y-148525580D01*
X119927248Y-148454151D01*
X120141534Y-148454151D01*
X120284391Y-148525580D01*
X120355820Y-148668437D01*
X120355820Y-149454151D01*
X120355820Y-148668437D02*
X120427248Y-148525580D01*
X120570105Y-148454151D01*
X120784391Y-148454151D01*
X120927248Y-148525580D01*
X120998677Y-148668437D01*
X120998677Y-149454151D01*
X122355820Y-148454151D02*
X122355820Y-149454151D01*
X121712962Y-148454151D02*
X121712962Y-149239865D01*
X121784391Y-149382722D01*
X121927248Y-149454151D01*
X122141534Y-149454151D01*
X122284391Y-149382722D01*
X122355820Y-149311294D01*
X123284391Y-149454151D02*
X123141534Y-149382722D01*
X123070105Y-149239865D01*
X123070105Y-147954151D01*
X124498677Y-149454151D02*
X124498677Y-148668437D01*
X124427248Y-148525580D01*
X124284391Y-148454151D01*
X123998677Y-148454151D01*
X123855820Y-148525580D01*
X124498677Y-149382722D02*
X124355820Y-149454151D01*
X123998677Y-149454151D01*
X123855820Y-149382722D01*
X123784391Y-149239865D01*
X123784391Y-149097008D01*
X123855820Y-148954151D01*
X123998677Y-148882722D01*
X124355820Y-148882722D01*
X124498677Y-148811294D01*
X124998677Y-148454151D02*
X125570105Y-148454151D01*
X125212962Y-147954151D02*
X125212962Y-149239865D01*
X125284391Y-149382722D01*
X125427248Y-149454151D01*
X125570105Y-149454151D01*
X126284391Y-149454151D02*
X126141534Y-149382722D01*
X126070105Y-149311294D01*
X125998677Y-149168437D01*
X125998677Y-148739865D01*
X126070105Y-148597008D01*
X126141534Y-148525580D01*
X126284391Y-148454151D01*
X126498677Y-148454151D01*
X126641534Y-148525580D01*
X126712962Y-148597008D01*
X126784391Y-148739865D01*
X126784391Y-149168437D01*
X126712962Y-149311294D01*
X126641534Y-149382722D01*
X126498677Y-149454151D01*
X126284391Y-149454151D01*
X127427248Y-149454151D02*
X127427248Y-148454151D01*
X127427248Y-148739865D02*
X127498677Y-148597008D01*
X127570105Y-148525580D01*
X127712962Y-148454151D01*
X127855820Y-148454151D01*
X108712962Y-151218437D02*
X109212962Y-151218437D01*
X109427248Y-152004151D02*
X108712962Y-152004151D01*
X108712962Y-150504151D01*
X109427248Y-150504151D01*
X110070105Y-152004151D02*
X110070105Y-151004151D01*
X110070105Y-151147008D02*
X110141534Y-151075580D01*
X110284391Y-151004151D01*
X110498677Y-151004151D01*
X110641534Y-151075580D01*
X110712962Y-151218437D01*
X110712962Y-152004151D01*
X110712962Y-151218437D02*
X110784391Y-151075580D01*
X110927248Y-151004151D01*
X111141534Y-151004151D01*
X111284391Y-151075580D01*
X111355820Y-151218437D01*
X111355820Y-152004151D01*
X112712962Y-151004151D02*
X112712962Y-152004151D01*
X112070105Y-151004151D02*
X112070105Y-151789865D01*
X112141534Y-151932722D01*
X112284391Y-152004151D01*
X112498677Y-152004151D01*
X112641534Y-151932722D01*
X112712962Y-151861294D01*
X113641534Y-152004151D02*
X113498677Y-151932722D01*
X113427248Y-151789865D01*
X113427248Y-150504151D01*
X114855820Y-152004151D02*
X114855820Y-151218437D01*
X114784391Y-151075580D01*
X114641534Y-151004151D01*
X114355820Y-151004151D01*
X114212962Y-151075580D01*
X114855820Y-151932722D02*
X114712962Y-152004151D01*
X114355820Y-152004151D01*
X114212962Y-151932722D01*
X114141534Y-151789865D01*
X114141534Y-151647008D01*
X114212962Y-151504151D01*
X114355820Y-151432722D01*
X114712962Y-151432722D01*
X114855820Y-151361294D01*
X115355820Y-151004151D02*
X115927248Y-151004151D01*
X115570105Y-150504151D02*
X115570105Y-151789865D01*
X115641534Y-151932722D01*
X115784391Y-152004151D01*
X115927248Y-152004151D01*
X116427248Y-152004151D02*
X116427248Y-151004151D01*
X116427248Y-150504151D02*
X116355820Y-150575580D01*
X116427248Y-150647008D01*
X116498677Y-150575580D01*
X116427248Y-150504151D01*
X116427248Y-150647008D01*
X117141534Y-151004151D02*
X117141534Y-152004151D01*
X117141534Y-151147008D02*
X117212962Y-151075580D01*
X117355820Y-151004151D01*
X117570105Y-151004151D01*
X117712962Y-151075580D01*
X117784391Y-151218437D01*
X117784391Y-152004151D01*
X119141534Y-151004151D02*
X119141534Y-152218437D01*
X119070105Y-152361294D01*
X118998677Y-152432722D01*
X118855820Y-152504151D01*
X118641534Y-152504151D01*
X118498677Y-152432722D01*
X119141534Y-151932722D02*
X118998677Y-152004151D01*
X118712962Y-152004151D01*
X118570105Y-151932722D01*
X118498677Y-151861294D01*
X118427248Y-151718437D01*
X118427248Y-151289865D01*
X118498677Y-151147008D01*
X118570105Y-151075580D01*
X118712962Y-151004151D01*
X118998677Y-151004151D01*
X119141534Y-151075580D01*
X121641534Y-152004151D02*
X121641534Y-151218437D01*
X121570105Y-151075580D01*
X121427248Y-151004151D01*
X121141534Y-151004151D01*
X120998677Y-151075580D01*
X121641534Y-151932722D02*
X121498677Y-152004151D01*
X121141534Y-152004151D01*
X120998677Y-151932722D01*
X120927248Y-151789865D01*
X120927248Y-151647008D01*
X120998677Y-151504151D01*
X121141534Y-151432722D01*
X121498677Y-151432722D01*
X121641534Y-151361294D01*
X122355820Y-151004151D02*
X122355820Y-152004151D01*
X122355820Y-151147008D02*
X122427248Y-151075580D01*
X122570105Y-151004151D01*
X122784391Y-151004151D01*
X122927248Y-151075580D01*
X122998677Y-151218437D01*
X122998677Y-152004151D01*
X124855820Y-152004151D02*
X124855820Y-150504151D01*
X126070105Y-151218437D02*
X126284391Y-151289865D01*
X126355820Y-151361294D01*
X126427248Y-151504151D01*
X126427248Y-151718437D01*
X126355820Y-151861294D01*
X126284391Y-151932722D01*
X126141534Y-152004151D01*
X125570105Y-152004151D01*
X125570105Y-150504151D01*
X126070105Y-150504151D01*
X126212962Y-150575580D01*
X126284391Y-150647008D01*
X126355820Y-150789865D01*
X126355820Y-150932722D01*
X126284391Y-151075580D01*
X126212962Y-151147008D01*
X126070105Y-151218437D01*
X125570105Y-151218437D01*
X127070105Y-152004151D02*
X127070105Y-150504151D01*
X127570105Y-151575580D01*
X128070105Y-150504151D01*
X128070105Y-152004151D01*
X130570105Y-150504151D02*
X130284391Y-150504151D01*
X130141534Y-150575580D01*
X130070105Y-150647008D01*
X129927248Y-150861294D01*
X129855820Y-151147008D01*
X129855820Y-151718437D01*
X129927248Y-151861294D01*
X129998677Y-151932722D01*
X130141534Y-152004151D01*
X130427248Y-152004151D01*
X130570105Y-151932722D01*
X130641534Y-151861294D01*
X130712962Y-151718437D01*
X130712962Y-151361294D01*
X130641534Y-151218437D01*
X130570105Y-151147008D01*
X130427248Y-151075580D01*
X130141534Y-151075580D01*
X129998677Y-151147008D01*
X129927248Y-151218437D01*
X129855820Y-151361294D01*
X132141534Y-152004151D02*
X131284391Y-152004151D01*
X131712962Y-152004151D02*
X131712962Y-150504151D01*
X131570105Y-150718437D01*
X131427248Y-150861294D01*
X131284391Y-150932722D01*
X133498677Y-150504151D02*
X132784391Y-150504151D01*
X132712962Y-151218437D01*
X132784391Y-151147008D01*
X132927248Y-151075580D01*
X133284391Y-151075580D01*
X133427248Y-151147008D01*
X133498677Y-151218437D01*
X133570105Y-151361294D01*
X133570105Y-151718437D01*
X133498677Y-151861294D01*
X133427248Y-151932722D01*
X133284391Y-152004151D01*
X132927248Y-152004151D01*
X132784391Y-151932722D01*
X132712962Y-151861294D01*
X134070105Y-150504151D02*
X135070105Y-150504151D01*
X134427248Y-152004151D01*
X108498677Y-153554151D02*
X109070105Y-153554151D01*
X108712962Y-153054151D02*
X108712962Y-154339865D01*
X108784391Y-154482722D01*
X108927248Y-154554151D01*
X109070105Y-154554151D01*
X110212962Y-154554151D02*
X110212962Y-153768437D01*
X110141534Y-153625580D01*
X109998677Y-153554151D01*
X109712962Y-153554151D01*
X109570105Y-153625580D01*
X110212962Y-154482722D02*
X110070105Y-154554151D01*
X109712962Y-154554151D01*
X109570105Y-154482722D01*
X109498677Y-154339865D01*
X109498677Y-154197008D01*
X109570105Y-154054151D01*
X109712962Y-153982722D01*
X110070105Y-153982722D01*
X110212962Y-153911294D01*
X110927248Y-153554151D02*
X110927248Y-155054151D01*
X110927248Y-153625580D02*
X111070105Y-153554151D01*
X111355820Y-153554151D01*
X111498677Y-153625580D01*
X111570105Y-153697008D01*
X111641534Y-153839865D01*
X111641534Y-154268437D01*
X111570105Y-154411294D01*
X111498677Y-154482722D01*
X111355820Y-154554151D01*
X111070105Y-154554151D01*
X110927248Y-154482722D01*
X112855820Y-154482722D02*
X112712962Y-154554151D01*
X112427248Y-154554151D01*
X112284391Y-154482722D01*
X112212962Y-154339865D01*
X112212962Y-153768437D01*
X112284391Y-153625580D01*
X112427248Y-153554151D01*
X112712962Y-153554151D01*
X112855820Y-153625580D01*
X112927248Y-153768437D01*
X112927248Y-153911294D01*
X112212962Y-154054151D01*
X115355820Y-154554151D02*
X115355820Y-153054151D01*
X115355820Y-154482722D02*
X115212962Y-154554151D01*
X114927248Y-154554151D01*
X114784391Y-154482722D01*
X114712962Y-154411294D01*
X114641534Y-154268437D01*
X114641534Y-153839865D01*
X114712962Y-153697008D01*
X114784391Y-153625580D01*
X114927248Y-153554151D01*
X115212962Y-153554151D01*
X115355820Y-153625580D01*
X116070105Y-154554151D02*
X116070105Y-153554151D01*
X116070105Y-153839865D02*
X116141534Y-153697008D01*
X116212962Y-153625580D01*
X116355820Y-153554151D01*
X116498677Y-153554151D01*
X116998677Y-154554151D02*
X116998677Y-153554151D01*
X116998677Y-153054151D02*
X116927248Y-153125580D01*
X116998677Y-153197008D01*
X117070105Y-153125580D01*
X116998677Y-153054151D01*
X116998677Y-153197008D01*
X117570105Y-153554151D02*
X117927248Y-154554151D01*
X118284391Y-153554151D01*
X119427248Y-154482722D02*
X119284391Y-154554151D01*
X118998677Y-154554151D01*
X118855820Y-154482722D01*
X118784391Y-154339865D01*
X118784391Y-153768437D01*
X118855820Y-153625580D01*
X118998677Y-153554151D01*
X119284391Y-153554151D01*
X119427248Y-153625580D01*
X119498677Y-153768437D01*
X119498677Y-153911294D01*
X118784391Y-154054151D01*
X112425714Y-87366231D02*
X112425714Y-85866231D01*
X113068571Y-87366231D02*
X113068571Y-86580517D01*
X112997142Y-86437660D01*
X112854285Y-86366231D01*
X112640000Y-86366231D01*
X112497142Y-86437660D01*
X112425714Y-86509088D01*
X113568571Y-86366231D02*
X114140000Y-86366231D01*
X113782857Y-85866231D02*
X113782857Y-87151945D01*
X113854285Y-87294802D01*
X113997142Y-87366231D01*
X114140000Y-87366231D01*
X114425714Y-86366231D02*
X114997142Y-86366231D01*
X114640000Y-85866231D02*
X114640000Y-87151945D01*
X114711428Y-87294802D01*
X114854285Y-87366231D01*
X114997142Y-87366231D01*
X115497142Y-86366231D02*
X115497142Y-87866231D01*
X115497142Y-86437660D02*
X115640000Y-86366231D01*
X115925714Y-86366231D01*
X116068571Y-86437660D01*
X116140000Y-86509088D01*
X116211428Y-86651945D01*
X116211428Y-87080517D01*
X116140000Y-87223374D01*
X116068571Y-87294802D01*
X115925714Y-87366231D01*
X115640000Y-87366231D01*
X115497142Y-87294802D01*
X116782857Y-87294802D02*
X116925714Y-87366231D01*
X117211428Y-87366231D01*
X117354285Y-87294802D01*
X117425714Y-87151945D01*
X117425714Y-87080517D01*
X117354285Y-86937660D01*
X117211428Y-86866231D01*
X116997142Y-86866231D01*
X116854285Y-86794802D01*
X116782857Y-86651945D01*
X116782857Y-86580517D01*
X116854285Y-86437660D01*
X116997142Y-86366231D01*
X117211428Y-86366231D01*
X117354285Y-86437660D01*
X118068571Y-87223374D02*
X118140000Y-87294802D01*
X118068571Y-87366231D01*
X117997142Y-87294802D01*
X118068571Y-87223374D01*
X118068571Y-87366231D01*
X118068571Y-86437660D02*
X118140000Y-86509088D01*
X118068571Y-86580517D01*
X117997142Y-86509088D01*
X118068571Y-86437660D01*
X118068571Y-86580517D01*
X119854285Y-85794802D02*
X118568571Y-87723374D01*
X121425714Y-85794802D02*
X120140000Y-87723374D01*
X122568571Y-86366231D02*
X122568571Y-87580517D01*
X122497142Y-87723374D01*
X122425714Y-87794802D01*
X122282857Y-87866231D01*
X122068571Y-87866231D01*
X121925714Y-87794802D01*
X122568571Y-87294802D02*
X122425714Y-87366231D01*
X122140000Y-87366231D01*
X121997142Y-87294802D01*
X121925714Y-87223374D01*
X121854285Y-87080517D01*
X121854285Y-86651945D01*
X121925714Y-86509088D01*
X121997142Y-86437660D01*
X122140000Y-86366231D01*
X122425714Y-86366231D01*
X122568571Y-86437660D01*
X123282857Y-87366231D02*
X123282857Y-86366231D01*
X123282857Y-85866231D02*
X123211428Y-85937660D01*
X123282857Y-86009088D01*
X123354285Y-85937660D01*
X123282857Y-85866231D01*
X123282857Y-86009088D01*
X123782857Y-86366231D02*
X124354285Y-86366231D01*
X123997142Y-85866231D02*
X123997142Y-87151945D01*
X124068571Y-87294802D01*
X124211428Y-87366231D01*
X124354285Y-87366231D01*
X124854285Y-87366231D02*
X124854285Y-85866231D01*
X125497142Y-87366231D02*
X125497142Y-86580517D01*
X125425714Y-86437660D01*
X125282857Y-86366231D01*
X125068571Y-86366231D01*
X124925714Y-86437660D01*
X124854285Y-86509088D01*
X126854285Y-86366231D02*
X126854285Y-87366231D01*
X126211428Y-86366231D02*
X126211428Y-87151945D01*
X126282857Y-87294802D01*
X126425714Y-87366231D01*
X126640000Y-87366231D01*
X126782857Y-87294802D01*
X126854285Y-87223374D01*
X127568571Y-87366231D02*
X127568571Y-85866231D01*
X127568571Y-86437660D02*
X127711428Y-86366231D01*
X127997142Y-86366231D01*
X128140000Y-86437660D01*
X128211428Y-86509088D01*
X128282857Y-86651945D01*
X128282857Y-87080517D01*
X128211428Y-87223374D01*
X128140000Y-87294802D01*
X127997142Y-87366231D01*
X127711428Y-87366231D01*
X127568571Y-87294802D01*
X128925714Y-87223374D02*
X128997142Y-87294802D01*
X128925714Y-87366231D01*
X128854285Y-87294802D01*
X128925714Y-87223374D01*
X128925714Y-87366231D01*
X130282857Y-87294802D02*
X130140000Y-87366231D01*
X129854285Y-87366231D01*
X129711428Y-87294802D01*
X129640000Y-87223374D01*
X129568571Y-87080517D01*
X129568571Y-86651945D01*
X129640000Y-86509088D01*
X129711428Y-86437660D01*
X129854285Y-86366231D01*
X130140000Y-86366231D01*
X130282857Y-86437660D01*
X131140000Y-87366231D02*
X130997142Y-87294802D01*
X130925714Y-87223374D01*
X130854285Y-87080517D01*
X130854285Y-86651945D01*
X130925714Y-86509088D01*
X130997142Y-86437660D01*
X131140000Y-86366231D01*
X131354285Y-86366231D01*
X131497142Y-86437660D01*
X131568571Y-86509088D01*
X131640000Y-86651945D01*
X131640000Y-87080517D01*
X131568571Y-87223374D01*
X131497142Y-87294802D01*
X131354285Y-87366231D01*
X131140000Y-87366231D01*
X132282857Y-87366231D02*
X132282857Y-86366231D01*
X132282857Y-86509088D02*
X132354285Y-86437660D01*
X132497142Y-86366231D01*
X132711428Y-86366231D01*
X132854285Y-86437660D01*
X132925714Y-86580517D01*
X132925714Y-87366231D01*
X132925714Y-86580517D02*
X132997142Y-86437660D01*
X133140000Y-86366231D01*
X133354285Y-86366231D01*
X133497142Y-86437660D01*
X133568571Y-86580517D01*
X133568571Y-87366231D01*
X135354285Y-85794802D02*
X134068571Y-87723374D01*
X135854285Y-87366231D02*
X135854285Y-85866231D01*
X136354285Y-86937660D01*
X136854285Y-85866231D01*
X136854285Y-87366231D01*
X138211428Y-87366231D02*
X138211428Y-86580517D01*
X138140000Y-86437660D01*
X137997142Y-86366231D01*
X137711428Y-86366231D01*
X137568571Y-86437660D01*
X138211428Y-87294802D02*
X138068571Y-87366231D01*
X137711428Y-87366231D01*
X137568571Y-87294802D01*
X137497142Y-87151945D01*
X137497142Y-87009088D01*
X137568571Y-86866231D01*
X137711428Y-86794802D01*
X138068571Y-86794802D01*
X138211428Y-86723374D01*
X138711428Y-86366231D02*
X139282857Y-86366231D01*
X138925714Y-85866231D02*
X138925714Y-87151945D01*
X138997142Y-87294802D01*
X139140000Y-87366231D01*
X139282857Y-87366231D01*
X139568571Y-86366231D02*
X140140000Y-86366231D01*
X139782857Y-85866231D02*
X139782857Y-87151945D01*
X139854285Y-87294802D01*
X139997142Y-87366231D01*
X140140000Y-87366231D01*
X140640000Y-87366231D02*
X140640000Y-86366231D01*
X140640000Y-85866231D02*
X140568571Y-85937660D01*
X140640000Y-86009088D01*
X140711428Y-85937660D01*
X140640000Y-85866231D01*
X140640000Y-86009088D01*
X141282857Y-87294802D02*
X141425714Y-87366231D01*
X141711428Y-87366231D01*
X141854285Y-87294802D01*
X141925714Y-87151945D01*
X141925714Y-87080517D01*
X141854285Y-86937660D01*
X141711428Y-86866231D01*
X141497142Y-86866231D01*
X141354285Y-86794802D01*
X141282857Y-86651945D01*
X141282857Y-86580517D01*
X141354285Y-86437660D01*
X141497142Y-86366231D01*
X141711428Y-86366231D01*
X141854285Y-86437660D01*
X143282857Y-87366231D02*
X142568571Y-87366231D01*
X142568571Y-85866231D01*
X143782857Y-87366231D02*
X143782857Y-86366231D01*
X143782857Y-85866231D02*
X143711428Y-85937660D01*
X143782857Y-86009088D01*
X143854285Y-85937660D01*
X143782857Y-85866231D01*
X143782857Y-86009088D01*
X144497142Y-86366231D02*
X144497142Y-87366231D01*
X144497142Y-86509088D02*
X144568571Y-86437660D01*
X144711428Y-86366231D01*
X144925714Y-86366231D01*
X145068571Y-86437660D01*
X145140000Y-86580517D01*
X145140000Y-87366231D01*
X146497142Y-87366231D02*
X146497142Y-85866231D01*
X146497142Y-87294802D02*
X146354285Y-87366231D01*
X146068571Y-87366231D01*
X145925714Y-87294802D01*
X145854285Y-87223374D01*
X145782857Y-87080517D01*
X145782857Y-86651945D01*
X145854285Y-86509088D01*
X145925714Y-86437660D01*
X146068571Y-86366231D01*
X146354285Y-86366231D01*
X146497142Y-86437660D01*
X148282857Y-85794802D02*
X146997142Y-87723374D01*
X149782857Y-87509088D02*
X149640000Y-87437660D01*
X149497142Y-87294802D01*
X149282857Y-87080517D01*
X149140000Y-87009088D01*
X148997142Y-87009088D01*
X149068571Y-87366231D02*
X148925714Y-87294802D01*
X148782857Y-87151945D01*
X148711428Y-86866231D01*
X148711428Y-86366231D01*
X148782857Y-86080517D01*
X148925714Y-85937660D01*
X149068571Y-85866231D01*
X149354285Y-85866231D01*
X149497142Y-85937660D01*
X149640000Y-86080517D01*
X149711428Y-86366231D01*
X149711428Y-86866231D01*
X149640000Y-87151945D01*
X149497142Y-87294802D01*
X149354285Y-87366231D01*
X149068571Y-87366231D01*
X150354285Y-87366231D02*
X150354285Y-85866231D01*
X151925714Y-87223374D02*
X151854285Y-87294802D01*
X151640000Y-87366231D01*
X151497142Y-87366231D01*
X151282857Y-87294802D01*
X151140000Y-87151945D01*
X151068571Y-87009088D01*
X150997142Y-86723374D01*
X150997142Y-86509088D01*
X151068571Y-86223374D01*
X151140000Y-86080517D01*
X151282857Y-85937660D01*
X151497142Y-85866231D01*
X151640000Y-85866231D01*
X151854285Y-85937660D01*
X151925714Y-86009088D01*
X152854285Y-85866231D02*
X152997142Y-85866231D01*
X153140000Y-85937660D01*
X153211428Y-86009088D01*
X153282857Y-86151945D01*
X153354285Y-86437660D01*
X153354285Y-86794802D01*
X153282857Y-87080517D01*
X153211428Y-87223374D01*
X153140000Y-87294802D01*
X152997142Y-87366231D01*
X152854285Y-87366231D01*
X152711428Y-87294802D01*
X152640000Y-87223374D01*
X152568571Y-87080517D01*
X152497142Y-86794802D01*
X152497142Y-86437660D01*
X152568571Y-86151945D01*
X152640000Y-86009088D01*
X152711428Y-85937660D01*
X152854285Y-85866231D01*
X153925714Y-86009088D02*
X153997142Y-85937660D01*
X154140000Y-85866231D01*
X154497142Y-85866231D01*
X154640000Y-85937660D01*
X154711428Y-86009088D01*
X154782857Y-86151945D01*
X154782857Y-86294802D01*
X154711428Y-86509088D01*
X153854285Y-87366231D01*
X154782857Y-87366231D01*
X155425714Y-86580517D02*
X155925714Y-86580517D01*
X156140000Y-87366231D02*
X155425714Y-87366231D01*
X155425714Y-85866231D01*
X156140000Y-85866231D01*
X156782857Y-87366231D02*
X156782857Y-85866231D01*
X157282857Y-86937660D01*
X157782857Y-85866231D01*
X157782857Y-87366231D01*
X158497142Y-85866231D02*
X158497142Y-87080517D01*
X158568571Y-87223374D01*
X158640000Y-87294802D01*
X158782857Y-87366231D01*
X159068571Y-87366231D01*
X159211428Y-87294802D01*
X159282857Y-87223374D01*
X159354285Y-87080517D01*
X159354285Y-85866231D01*
X138236048Y-150269482D02*
X139378905Y-150269482D01*
X138807477Y-150840911D02*
X138807477Y-149698054D01*
X140807477Y-149340911D02*
X140093191Y-149340911D01*
X140021762Y-150055197D01*
X140093191Y-149983768D01*
X140236048Y-149912340D01*
X140593191Y-149912340D01*
X140736048Y-149983768D01*
X140807477Y-150055197D01*
X140878905Y-150198054D01*
X140878905Y-150555197D01*
X140807477Y-150698054D01*
X140736048Y-150769482D01*
X140593191Y-150840911D01*
X140236048Y-150840911D01*
X140093191Y-150769482D01*
X140021762Y-150698054D01*
X141307477Y-149340911D02*
X141807477Y-150840911D01*
X142307477Y-149340911D01*
X144807477Y-150698054D02*
X144736048Y-150769482D01*
X144521762Y-150840911D01*
X144378905Y-150840911D01*
X144164620Y-150769482D01*
X144021762Y-150626625D01*
X143950334Y-150483768D01*
X143878905Y-150198054D01*
X143878905Y-149983768D01*
X143950334Y-149698054D01*
X144021762Y-149555197D01*
X144164620Y-149412340D01*
X144378905Y-149340911D01*
X144521762Y-149340911D01*
X144736048Y-149412340D01*
X144807477Y-149483768D01*
X146021762Y-150769482D02*
X145878905Y-150840911D01*
X145593191Y-150840911D01*
X145450334Y-150769482D01*
X145378905Y-150626625D01*
X145378905Y-150055197D01*
X145450334Y-149912340D01*
X145593191Y-149840911D01*
X145878905Y-149840911D01*
X146021762Y-149912340D01*
X146093191Y-150055197D01*
X146093191Y-150198054D01*
X145378905Y-150340911D01*
X146736048Y-149840911D02*
X146736048Y-150840911D01*
X146736048Y-149983768D02*
X146807477Y-149912340D01*
X146950334Y-149840911D01*
X147164620Y-149840911D01*
X147307477Y-149912340D01*
X147378905Y-150055197D01*
X147378905Y-150840911D01*
X147878905Y-149840911D02*
X148450334Y-149840911D01*
X148093191Y-149340911D02*
X148093191Y-150626625D01*
X148164620Y-150769482D01*
X148307477Y-150840911D01*
X148450334Y-150840911D01*
X149521762Y-150769482D02*
X149378905Y-150840911D01*
X149093191Y-150840911D01*
X148950334Y-150769482D01*
X148878905Y-150626625D01*
X148878905Y-150055197D01*
X148950334Y-149912340D01*
X149093191Y-149840911D01*
X149378905Y-149840911D01*
X149521762Y-149912340D01*
X149593191Y-150055197D01*
X149593191Y-150198054D01*
X148878905Y-150340911D01*
X150236048Y-150840911D02*
X150236048Y-149840911D01*
X150236048Y-150126625D02*
X150307477Y-149983768D01*
X150378905Y-149912340D01*
X150521762Y-149840911D01*
X150664620Y-149840911D01*
X140878905Y-153390911D02*
X140878905Y-151890911D01*
X141450334Y-151890911D01*
X141593191Y-151962340D01*
X141664620Y-152033768D01*
X141736048Y-152176625D01*
X141736048Y-152390911D01*
X141664620Y-152533768D01*
X141593191Y-152605197D01*
X141450334Y-152676625D01*
X140878905Y-152676625D01*
X142593191Y-153390911D02*
X142450334Y-153319482D01*
X142378905Y-153248054D01*
X142307477Y-153105197D01*
X142307477Y-152676625D01*
X142378905Y-152533768D01*
X142450334Y-152462340D01*
X142593191Y-152390911D01*
X142807477Y-152390911D01*
X142950334Y-152462340D01*
X143021762Y-152533768D01*
X143093191Y-152676625D01*
X143093191Y-153105197D01*
X143021762Y-153248054D01*
X142950334Y-153319482D01*
X142807477Y-153390911D01*
X142593191Y-153390911D01*
X143664620Y-153319482D02*
X143807477Y-153390911D01*
X144093191Y-153390911D01*
X144236048Y-153319482D01*
X144307477Y-153176625D01*
X144307477Y-153105197D01*
X144236048Y-152962340D01*
X144093191Y-152890911D01*
X143878905Y-152890911D01*
X143736048Y-152819482D01*
X143664620Y-152676625D01*
X143664620Y-152605197D01*
X143736048Y-152462340D01*
X143878905Y-152390911D01*
X144093191Y-152390911D01*
X144236048Y-152462340D01*
X144950334Y-153390911D02*
X144950334Y-152390911D01*
X144950334Y-151890911D02*
X144878905Y-151962340D01*
X144950334Y-152033768D01*
X145021762Y-151962340D01*
X144950334Y-151890911D01*
X144950334Y-152033768D01*
X145450334Y-152390911D02*
X146021762Y-152390911D01*
X145664620Y-151890911D02*
X145664620Y-153176625D01*
X145736048Y-153319482D01*
X145878905Y-153390911D01*
X146021762Y-153390911D01*
X146521762Y-153390911D02*
X146521762Y-152390911D01*
X146521762Y-151890911D02*
X146450334Y-151962340D01*
X146521762Y-152033768D01*
X146593191Y-151962340D01*
X146521762Y-151890911D01*
X146521762Y-152033768D01*
X147093191Y-152390911D02*
X147450334Y-153390911D01*
X147807477Y-152390911D01*
X148950334Y-153319482D02*
X148807477Y-153390911D01*
X148521762Y-153390911D01*
X148378905Y-153319482D01*
X148307477Y-153176625D01*
X148307477Y-152605197D01*
X148378905Y-152462340D01*
X148521762Y-152390911D01*
X148807477Y-152390911D01*
X148950334Y-152462340D01*
X149021762Y-152605197D01*
X149021762Y-152748054D01*
X148307477Y-152890911D01*
X103594908Y-156108197D02*
X103523480Y-156251054D01*
X103380622Y-156393911D01*
X103166337Y-156608197D01*
X103094908Y-156751054D01*
X103094908Y-156893911D01*
X103452051Y-156822482D02*
X103380622Y-156965340D01*
X103237765Y-157108197D01*
X102952051Y-157179625D01*
X102452051Y-157179625D01*
X102166337Y-157108197D01*
X102023480Y-156965340D01*
X101952051Y-156822482D01*
X101952051Y-156536768D01*
X102023480Y-156393911D01*
X102166337Y-156251054D01*
X102452051Y-156179625D01*
X102952051Y-156179625D01*
X103237765Y-156251054D01*
X103380622Y-156393911D01*
X103452051Y-156536768D01*
X103452051Y-156822482D01*
X103452051Y-155536768D02*
X101952051Y-155536768D01*
X103309194Y-153965340D02*
X103380622Y-154036768D01*
X103452051Y-154251054D01*
X103452051Y-154393911D01*
X103380622Y-154608197D01*
X103237765Y-154751054D01*
X103094908Y-154822482D01*
X102809194Y-154893911D01*
X102594908Y-154893911D01*
X102309194Y-154822482D01*
X102166337Y-154751054D01*
X102023480Y-154608197D01*
X101952051Y-154393911D01*
X101952051Y-154251054D01*
X102023480Y-154036768D01*
X102094908Y-153965340D01*
X102880622Y-153322482D02*
X102880622Y-152179625D01*
X101952051Y-151179625D02*
X101952051Y-151036768D01*
X102023480Y-150893911D01*
X102094908Y-150822482D01*
X102237765Y-150751054D01*
X102523480Y-150679625D01*
X102880622Y-150679625D01*
X103166337Y-150751054D01*
X103309194Y-150822482D01*
X103380622Y-150893911D01*
X103452051Y-151036768D01*
X103452051Y-151179625D01*
X103380622Y-151322482D01*
X103309194Y-151393911D01*
X103166337Y-151465340D01*
X102880622Y-151536768D01*
X102523480Y-151536768D01*
X102237765Y-151465340D01*
X102094908Y-151393911D01*
X102023480Y-151322482D01*
X101952051Y-151179625D01*
X102094908Y-150108197D02*
X102023480Y-150036768D01*
X101952051Y-149893911D01*
X101952051Y-149536768D01*
X102023480Y-149393911D01*
X102094908Y-149322482D01*
X102237765Y-149251054D01*
X102380622Y-149251054D01*
X102594908Y-149322482D01*
X103452051Y-150179625D01*
X103452051Y-149251054D01*
D11*
X79446904Y-157874860D02*
X79446904Y-156874860D01*
X80256428Y-157351051D02*
X80399285Y-157398670D01*
X80446904Y-157446289D01*
X80494523Y-157541527D01*
X80494523Y-157684384D01*
X80446904Y-157779622D01*
X80399285Y-157827241D01*
X80304047Y-157874860D01*
X79923095Y-157874860D01*
X79923095Y-156874860D01*
X80256428Y-156874860D01*
X80351666Y-156922480D01*
X80399285Y-156970099D01*
X80446904Y-157065337D01*
X80446904Y-157160575D01*
X80399285Y-157255813D01*
X80351666Y-157303432D01*
X80256428Y-157351051D01*
X79923095Y-157351051D01*
X80923095Y-157874860D02*
X80923095Y-156874860D01*
X81256428Y-157589146D01*
X81589761Y-156874860D01*
X81589761Y-157874860D01*
X83256428Y-156874860D02*
X83065952Y-156874860D01*
X82970714Y-156922480D01*
X82923095Y-156970099D01*
X82827857Y-157112956D01*
X82780238Y-157303432D01*
X82780238Y-157684384D01*
X82827857Y-157779622D01*
X82875476Y-157827241D01*
X82970714Y-157874860D01*
X83161190Y-157874860D01*
X83256428Y-157827241D01*
X83304047Y-157779622D01*
X83351666Y-157684384D01*
X83351666Y-157446289D01*
X83304047Y-157351051D01*
X83256428Y-157303432D01*
X83161190Y-157255813D01*
X82970714Y-157255813D01*
X82875476Y-157303432D01*
X82827857Y-157351051D01*
X82780238Y-157446289D01*
X84304047Y-157874860D02*
X83732619Y-157874860D01*
X84018333Y-157874860D02*
X84018333Y-156874860D01*
X83923095Y-157017718D01*
X83827857Y-157112956D01*
X83732619Y-157160575D01*
X85208809Y-156874860D02*
X84732619Y-156874860D01*
X84685000Y-157351051D01*
X84732619Y-157303432D01*
X84827857Y-157255813D01*
X85065952Y-157255813D01*
X85161190Y-157303432D01*
X85208809Y-157351051D01*
X85256428Y-157446289D01*
X85256428Y-157684384D01*
X85208809Y-157779622D01*
X85161190Y-157827241D01*
X85065952Y-157874860D01*
X84827857Y-157874860D01*
X84732619Y-157827241D01*
X84685000Y-157779622D01*
X85589761Y-156874860D02*
X86256428Y-156874860D01*
X85827857Y-157874860D01*
X75732619Y-159479622D02*
X75685000Y-159527241D01*
X75542142Y-159574860D01*
X75446904Y-159574860D01*
X75304047Y-159527241D01*
X75208809Y-159432003D01*
X75161190Y-159336765D01*
X75113571Y-159146289D01*
X75113571Y-159003432D01*
X75161190Y-158812956D01*
X75208809Y-158717718D01*
X75304047Y-158622480D01*
X75446904Y-158574860D01*
X75542142Y-158574860D01*
X75685000Y-158622480D01*
X75732619Y-158670099D01*
X76304047Y-159574860D02*
X76208809Y-159527241D01*
X76161190Y-159479622D01*
X76113571Y-159384384D01*
X76113571Y-159098670D01*
X76161190Y-159003432D01*
X76208809Y-158955813D01*
X76304047Y-158908194D01*
X76446904Y-158908194D01*
X76542142Y-158955813D01*
X76589761Y-159003432D01*
X76637380Y-159098670D01*
X76637380Y-159384384D01*
X76589761Y-159479622D01*
X76542142Y-159527241D01*
X76446904Y-159574860D01*
X76304047Y-159574860D01*
X77065952Y-159574860D02*
X77065952Y-158908194D01*
X77065952Y-159003432D02*
X77113571Y-158955813D01*
X77208809Y-158908194D01*
X77351666Y-158908194D01*
X77446904Y-158955813D01*
X77494523Y-159051051D01*
X77494523Y-159574860D01*
X77494523Y-159051051D02*
X77542142Y-158955813D01*
X77637380Y-158908194D01*
X77780238Y-158908194D01*
X77875476Y-158955813D01*
X77923095Y-159051051D01*
X77923095Y-159574860D01*
X78399285Y-158908194D02*
X78399285Y-159908194D01*
X78399285Y-158955813D02*
X78494523Y-158908194D01*
X78685000Y-158908194D01*
X78780238Y-158955813D01*
X78827857Y-159003432D01*
X78875476Y-159098670D01*
X78875476Y-159384384D01*
X78827857Y-159479622D01*
X78780238Y-159527241D01*
X78685000Y-159574860D01*
X78494523Y-159574860D01*
X78399285Y-159527241D01*
X79732619Y-159574860D02*
X79732619Y-159051051D01*
X79685000Y-158955813D01*
X79589761Y-158908194D01*
X79399285Y-158908194D01*
X79304047Y-158955813D01*
X79732619Y-159527241D02*
X79637380Y-159574860D01*
X79399285Y-159574860D01*
X79304047Y-159527241D01*
X79256428Y-159432003D01*
X79256428Y-159336765D01*
X79304047Y-159241527D01*
X79399285Y-159193908D01*
X79637380Y-159193908D01*
X79732619Y-159146289D01*
X80065952Y-158908194D02*
X80446904Y-158908194D01*
X80208809Y-158574860D02*
X80208809Y-159432003D01*
X80256428Y-159527241D01*
X80351666Y-159574860D01*
X80446904Y-159574860D01*
X80780238Y-159574860D02*
X80780238Y-158908194D01*
X80780238Y-158574860D02*
X80732619Y-158622480D01*
X80780238Y-158670099D01*
X80827857Y-158622480D01*
X80780238Y-158574860D01*
X80780238Y-158670099D01*
X81256428Y-159574860D02*
X81256428Y-158574860D01*
X81256428Y-158955813D02*
X81351666Y-158908194D01*
X81542142Y-158908194D01*
X81637380Y-158955813D01*
X81685000Y-159003432D01*
X81732619Y-159098670D01*
X81732619Y-159384384D01*
X81685000Y-159479622D01*
X81637380Y-159527241D01*
X81542142Y-159574860D01*
X81351666Y-159574860D01*
X81256428Y-159527241D01*
X82304047Y-159574860D02*
X82208809Y-159527241D01*
X82161190Y-159432003D01*
X82161190Y-158574860D01*
X83065952Y-159527241D02*
X82970714Y-159574860D01*
X82780238Y-159574860D01*
X82685000Y-159527241D01*
X82637380Y-159432003D01*
X82637380Y-159051051D01*
X82685000Y-158955813D01*
X82780238Y-158908194D01*
X82970714Y-158908194D01*
X83065952Y-158955813D01*
X83113571Y-159051051D01*
X83113571Y-159146289D01*
X82637380Y-159241527D01*
X84732619Y-159527241D02*
X84637380Y-159574860D01*
X84446904Y-159574860D01*
X84351666Y-159527241D01*
X84304047Y-159479622D01*
X84256428Y-159384384D01*
X84256428Y-159098670D01*
X84304047Y-159003432D01*
X84351666Y-158955813D01*
X84446904Y-158908194D01*
X84637380Y-158908194D01*
X84732619Y-158955813D01*
X85304047Y-159574860D02*
X85208809Y-159527241D01*
X85161190Y-159479622D01*
X85113571Y-159384384D01*
X85113571Y-159098670D01*
X85161190Y-159003432D01*
X85208809Y-158955813D01*
X85304047Y-158908194D01*
X85446904Y-158908194D01*
X85542142Y-158955813D01*
X85589761Y-159003432D01*
X85637380Y-159098670D01*
X85637380Y-159384384D01*
X85589761Y-159479622D01*
X85542142Y-159527241D01*
X85446904Y-159574860D01*
X85304047Y-159574860D01*
X86065952Y-158908194D02*
X86065952Y-159574860D01*
X86065952Y-159003432D02*
X86113571Y-158955813D01*
X86208809Y-158908194D01*
X86351666Y-158908194D01*
X86446904Y-158955813D01*
X86494523Y-159051051D01*
X86494523Y-159574860D01*
X86970714Y-158908194D02*
X86970714Y-159574860D01*
X86970714Y-159003432D02*
X87018333Y-158955813D01*
X87113571Y-158908194D01*
X87256428Y-158908194D01*
X87351666Y-158955813D01*
X87399285Y-159051051D01*
X87399285Y-159574860D01*
X88256428Y-159527241D02*
X88161190Y-159574860D01*
X87970714Y-159574860D01*
X87875476Y-159527241D01*
X87827857Y-159432003D01*
X87827857Y-159051051D01*
X87875476Y-158955813D01*
X87970714Y-158908194D01*
X88161190Y-158908194D01*
X88256428Y-158955813D01*
X88304047Y-159051051D01*
X88304047Y-159146289D01*
X87827857Y-159241527D01*
X89161190Y-159527241D02*
X89065952Y-159574860D01*
X88875476Y-159574860D01*
X88780238Y-159527241D01*
X88732619Y-159479622D01*
X88685000Y-159384384D01*
X88685000Y-159098670D01*
X88732619Y-159003432D01*
X88780238Y-158955813D01*
X88875476Y-158908194D01*
X89065952Y-158908194D01*
X89161190Y-158955813D01*
X89446904Y-158908194D02*
X89827857Y-158908194D01*
X89589761Y-158574860D02*
X89589761Y-159432003D01*
X89637380Y-159527241D01*
X89732619Y-159574860D01*
X89827857Y-159574860D01*
X90304047Y-159574860D02*
X90208809Y-159527241D01*
X90161190Y-159479622D01*
X90113571Y-159384384D01*
X90113571Y-159098670D01*
X90161190Y-159003432D01*
X90208809Y-158955813D01*
X90304047Y-158908194D01*
X90446904Y-158908194D01*
X90542142Y-158955813D01*
X90589761Y-159003432D01*
X90637380Y-159098670D01*
X90637380Y-159384384D01*
X90589761Y-159479622D01*
X90542142Y-159527241D01*
X90446904Y-159574860D01*
X90304047Y-159574860D01*
X91065952Y-159574860D02*
X91065952Y-158908194D01*
X91065952Y-159098670D02*
X91113571Y-159003432D01*
X91161190Y-158955813D01*
X91256428Y-158908194D01*
X91351666Y-158908194D01*
D12*
G04 #@! TO.C,J4*
X73848000Y-86868000D02*
X86188000Y-86868000D01*
X86188000Y-86868000D02*
X86188000Y-156388000D01*
X86188000Y-156388000D02*
X73848000Y-156388000D01*
X87082338Y-146308000D02*
X87082338Y-146808000D01*
X87082338Y-146808000D02*
X86649325Y-146558000D01*
X86649325Y-146558000D02*
X87082338Y-146308000D01*
G04 #@! TO.C,J3*
X91083000Y-157750000D02*
X91083000Y-86090000D01*
X91083000Y-86090000D02*
X100433000Y-86090000D01*
X100433000Y-86090000D02*
X100433000Y-157750000D01*
X100433000Y-157750000D02*
X91083000Y-157750000D01*
X100683000Y-158000000D02*
X100683000Y-155460000D01*
X100683000Y-158000000D02*
X98143000Y-158000000D01*
G04 #@! TO.C,C1*
X166064000Y-135636000D02*
G75*
G03X166064000Y-135636000I-3270000J0D01*
G01*
X162794000Y-132406000D02*
X162794000Y-138866000D01*
X162834000Y-132406000D02*
X162834000Y-138866000D01*
X162874000Y-132406000D02*
X162874000Y-138866000D01*
X162914000Y-132408000D02*
X162914000Y-138864000D01*
X162954000Y-132409000D02*
X162954000Y-138863000D01*
X162994000Y-132412000D02*
X162994000Y-138860000D01*
X163034000Y-132414000D02*
X163034000Y-134596000D01*
X163034000Y-136676000D02*
X163034000Y-138858000D01*
X163074000Y-132418000D02*
X163074000Y-134596000D01*
X163074000Y-136676000D02*
X163074000Y-138854000D01*
X163114000Y-132421000D02*
X163114000Y-134596000D01*
X163114000Y-136676000D02*
X163114000Y-138851000D01*
X163154000Y-132425000D02*
X163154000Y-134596000D01*
X163154000Y-136676000D02*
X163154000Y-138847000D01*
X163194000Y-132430000D02*
X163194000Y-134596000D01*
X163194000Y-136676000D02*
X163194000Y-138842000D01*
X163234000Y-132435000D02*
X163234000Y-134596000D01*
X163234000Y-136676000D02*
X163234000Y-138837000D01*
X163274000Y-132441000D02*
X163274000Y-134596000D01*
X163274000Y-136676000D02*
X163274000Y-138831000D01*
X163314000Y-132447000D02*
X163314000Y-134596000D01*
X163314000Y-136676000D02*
X163314000Y-138825000D01*
X163354000Y-132454000D02*
X163354000Y-134596000D01*
X163354000Y-136676000D02*
X163354000Y-138818000D01*
X163394000Y-132461000D02*
X163394000Y-134596000D01*
X163394000Y-136676000D02*
X163394000Y-138811000D01*
X163434000Y-132469000D02*
X163434000Y-134596000D01*
X163434000Y-136676000D02*
X163434000Y-138803000D01*
X163474000Y-132477000D02*
X163474000Y-134596000D01*
X163474000Y-136676000D02*
X163474000Y-138795000D01*
X163515000Y-132486000D02*
X163515000Y-134596000D01*
X163515000Y-136676000D02*
X163515000Y-138786000D01*
X163555000Y-132495000D02*
X163555000Y-134596000D01*
X163555000Y-136676000D02*
X163555000Y-138777000D01*
X163595000Y-132505000D02*
X163595000Y-134596000D01*
X163595000Y-136676000D02*
X163595000Y-138767000D01*
X163635000Y-132515000D02*
X163635000Y-134596000D01*
X163635000Y-136676000D02*
X163635000Y-138757000D01*
X163675000Y-132526000D02*
X163675000Y-134596000D01*
X163675000Y-136676000D02*
X163675000Y-138746000D01*
X163715000Y-132538000D02*
X163715000Y-134596000D01*
X163715000Y-136676000D02*
X163715000Y-138734000D01*
X163755000Y-132550000D02*
X163755000Y-134596000D01*
X163755000Y-136676000D02*
X163755000Y-138722000D01*
X163795000Y-132562000D02*
X163795000Y-134596000D01*
X163795000Y-136676000D02*
X163795000Y-138710000D01*
X163835000Y-132575000D02*
X163835000Y-134596000D01*
X163835000Y-136676000D02*
X163835000Y-138697000D01*
X163875000Y-132589000D02*
X163875000Y-134596000D01*
X163875000Y-136676000D02*
X163875000Y-138683000D01*
X163915000Y-132603000D02*
X163915000Y-134596000D01*
X163915000Y-136676000D02*
X163915000Y-138669000D01*
X163955000Y-132618000D02*
X163955000Y-134596000D01*
X163955000Y-136676000D02*
X163955000Y-138654000D01*
X163995000Y-132634000D02*
X163995000Y-134596000D01*
X163995000Y-136676000D02*
X163995000Y-138638000D01*
X164035000Y-132650000D02*
X164035000Y-134596000D01*
X164035000Y-136676000D02*
X164035000Y-138622000D01*
X164075000Y-132666000D02*
X164075000Y-134596000D01*
X164075000Y-136676000D02*
X164075000Y-138606000D01*
X164115000Y-132684000D02*
X164115000Y-134596000D01*
X164115000Y-136676000D02*
X164115000Y-138588000D01*
X164155000Y-132702000D02*
X164155000Y-134596000D01*
X164155000Y-136676000D02*
X164155000Y-138570000D01*
X164195000Y-132720000D02*
X164195000Y-134596000D01*
X164195000Y-136676000D02*
X164195000Y-138552000D01*
X164235000Y-132740000D02*
X164235000Y-134596000D01*
X164235000Y-136676000D02*
X164235000Y-138532000D01*
X164275000Y-132760000D02*
X164275000Y-134596000D01*
X164275000Y-136676000D02*
X164275000Y-138512000D01*
X164315000Y-132780000D02*
X164315000Y-134596000D01*
X164315000Y-136676000D02*
X164315000Y-138492000D01*
X164355000Y-132802000D02*
X164355000Y-134596000D01*
X164355000Y-136676000D02*
X164355000Y-138470000D01*
X164395000Y-132824000D02*
X164395000Y-134596000D01*
X164395000Y-136676000D02*
X164395000Y-138448000D01*
X164435000Y-132846000D02*
X164435000Y-134596000D01*
X164435000Y-136676000D02*
X164435000Y-138426000D01*
X164475000Y-132870000D02*
X164475000Y-134596000D01*
X164475000Y-136676000D02*
X164475000Y-138402000D01*
X164515000Y-132894000D02*
X164515000Y-134596000D01*
X164515000Y-136676000D02*
X164515000Y-138378000D01*
X164555000Y-132920000D02*
X164555000Y-134596000D01*
X164555000Y-136676000D02*
X164555000Y-138352000D01*
X164595000Y-132946000D02*
X164595000Y-134596000D01*
X164595000Y-136676000D02*
X164595000Y-138326000D01*
X164635000Y-132972000D02*
X164635000Y-134596000D01*
X164635000Y-136676000D02*
X164635000Y-138300000D01*
X164675000Y-133000000D02*
X164675000Y-134596000D01*
X164675000Y-136676000D02*
X164675000Y-138272000D01*
X164715000Y-133029000D02*
X164715000Y-134596000D01*
X164715000Y-136676000D02*
X164715000Y-138243000D01*
X164755000Y-133058000D02*
X164755000Y-134596000D01*
X164755000Y-136676000D02*
X164755000Y-138214000D01*
X164795000Y-133088000D02*
X164795000Y-134596000D01*
X164795000Y-136676000D02*
X164795000Y-138184000D01*
X164835000Y-133120000D02*
X164835000Y-134596000D01*
X164835000Y-136676000D02*
X164835000Y-138152000D01*
X164875000Y-133152000D02*
X164875000Y-134596000D01*
X164875000Y-136676000D02*
X164875000Y-138120000D01*
X164915000Y-133186000D02*
X164915000Y-134596000D01*
X164915000Y-136676000D02*
X164915000Y-138086000D01*
X164955000Y-133220000D02*
X164955000Y-134596000D01*
X164955000Y-136676000D02*
X164955000Y-138052000D01*
X164995000Y-133256000D02*
X164995000Y-134596000D01*
X164995000Y-136676000D02*
X164995000Y-138016000D01*
X165035000Y-133293000D02*
X165035000Y-134596000D01*
X165035000Y-136676000D02*
X165035000Y-137979000D01*
X165075000Y-133331000D02*
X165075000Y-134596000D01*
X165075000Y-136676000D02*
X165075000Y-137941000D01*
X165115000Y-133371000D02*
X165115000Y-137901000D01*
X165155000Y-133412000D02*
X165155000Y-137860000D01*
X165195000Y-133454000D02*
X165195000Y-137818000D01*
X165235000Y-133499000D02*
X165235000Y-137773000D01*
X165275000Y-133544000D02*
X165275000Y-137728000D01*
X165315000Y-133592000D02*
X165315000Y-137680000D01*
X165355000Y-133641000D02*
X165355000Y-137631000D01*
X165395000Y-133692000D02*
X165395000Y-137580000D01*
X165435000Y-133746000D02*
X165435000Y-137526000D01*
X165475000Y-133802000D02*
X165475000Y-137470000D01*
X165515000Y-133860000D02*
X165515000Y-137412000D01*
X165555000Y-133922000D02*
X165555000Y-137350000D01*
X165595000Y-133986000D02*
X165595000Y-137286000D01*
X165635000Y-134055000D02*
X165635000Y-137217000D01*
X165675000Y-134127000D02*
X165675000Y-137145000D01*
X165715000Y-134204000D02*
X165715000Y-137068000D01*
X165755000Y-134286000D02*
X165755000Y-136986000D01*
X165795000Y-134374000D02*
X165795000Y-136898000D01*
X165835000Y-134471000D02*
X165835000Y-136801000D01*
X165875000Y-134577000D02*
X165875000Y-136695000D01*
X165915000Y-134696000D02*
X165915000Y-136576000D01*
X165955000Y-134834000D02*
X165955000Y-136438000D01*
X165995000Y-135003000D02*
X165995000Y-136269000D01*
X166035000Y-135234000D02*
X166035000Y-136038000D01*
X159293759Y-133797000D02*
X159923759Y-133797000D01*
X159608759Y-133482000D02*
X159608759Y-134112000D01*
G04 #@! TO.C,J1*
X153332000Y-155642000D02*
X153332000Y-156692000D01*
X154382000Y-156692000D02*
X153332000Y-156692000D01*
X159432000Y-147292000D02*
X168232000Y-147292000D01*
X168232000Y-147292000D02*
X168232000Y-156492000D01*
X153532000Y-149992000D02*
X153532000Y-147292000D01*
X153532000Y-147292000D02*
X155432000Y-147292000D01*
X168232000Y-156492000D02*
X153532000Y-156492000D01*
X153532000Y-156492000D02*
X153532000Y-153892000D01*
G04 #@! TO.C,J2*
X167389000Y-111295000D02*
X167039000Y-111805000D01*
X167189000Y-108785000D02*
X167189000Y-108525000D01*
X167389000Y-108985000D02*
X167189000Y-108785000D01*
X167389000Y-118385000D02*
X167189000Y-118175000D01*
X167039000Y-118175000D02*
X167189000Y-118175000D01*
X167039000Y-118175000D02*
X167039000Y-111805000D01*
X162429000Y-121275000D02*
X164229000Y-121275000D01*
X156429000Y-121275000D02*
X161129000Y-121275000D01*
X167389000Y-120245000D02*
X167189000Y-120445000D01*
X167389000Y-120245000D02*
X167389000Y-118385000D01*
X167389000Y-108985000D02*
X167389000Y-111295000D01*
X151119000Y-121275000D02*
X154729000Y-121275000D01*
X151119000Y-120825000D02*
X151119000Y-121275000D01*
X151119000Y-107305000D02*
X165129000Y-107305000D01*
X151119000Y-109225000D02*
X151119000Y-107305000D01*
G04 #@! TO.C,U1*
X138414000Y-89602000D02*
G75*
G02X136414000Y-89602000I-1000000J0D01*
G01*
X136414000Y-89602000D02*
X130954000Y-89602000D01*
X130954000Y-89602000D02*
X130954000Y-140522000D01*
X130954000Y-140522000D02*
X143874000Y-140522000D01*
X143874000Y-140522000D02*
X143874000Y-89602000D01*
X143874000Y-89602000D02*
X138414000Y-89602000D01*
D13*
G04 #@! TO.C,U3*
X115251000Y-99851000D02*
X115251000Y-100101000D01*
X123001000Y-99851000D02*
X123001000Y-100186000D01*
X123001000Y-113001000D02*
X123001000Y-112666000D01*
X115251000Y-113001000D02*
X115251000Y-112666000D01*
X115251000Y-99851000D02*
X123001000Y-99851000D01*
X115251000Y-113001000D02*
X123001000Y-113001000D01*
X115251000Y-100101000D02*
X113451000Y-100101000D01*
G04 #@! TO.C,U2*
X115759000Y-125475000D02*
X115759000Y-125750000D01*
X123509000Y-125475000D02*
X123509000Y-125840000D01*
X123509000Y-141225000D02*
X123509000Y-140860000D01*
X115759000Y-141225000D02*
X115759000Y-140860000D01*
X115759000Y-125475000D02*
X123509000Y-125475000D01*
X115759000Y-141225000D02*
X123509000Y-141225000D01*
X115759000Y-125750000D02*
X113934000Y-125750000D01*
D12*
G04 #@! TO.C,RN2*
X107566000Y-123190000D02*
X110366000Y-123190000D01*
X107566000Y-100160000D02*
X107566000Y-125900000D01*
X110366000Y-100160000D02*
X107566000Y-100160000D01*
X110366000Y-125900000D02*
X110366000Y-100160000D01*
X107566000Y-125900000D02*
X110366000Y-125900000D01*
G04 #@! TO.C,RN1*
X102994000Y-143680000D02*
X105794000Y-143680000D01*
X105794000Y-143680000D02*
X105794000Y-117940000D01*
X105794000Y-117940000D02*
X102994000Y-117940000D01*
X102994000Y-117940000D02*
X102994000Y-143680000D01*
X102994000Y-140970000D02*
X105794000Y-140970000D01*
G04 #@! TO.C,J4*
D13*
X86580380Y-121961333D02*
X87294666Y-121961333D01*
X87437523Y-122008952D01*
X87532761Y-122104190D01*
X87580380Y-122247047D01*
X87580380Y-122342285D01*
X86913714Y-121056571D02*
X87580380Y-121056571D01*
X86532761Y-121294666D02*
X87247047Y-121532761D01*
X87247047Y-120913714D01*
G04 #@! TO.C,J3*
X95424666Y-158456380D02*
X95424666Y-159170666D01*
X95377047Y-159313523D01*
X95281809Y-159408761D01*
X95138952Y-159456380D01*
X95043714Y-159456380D01*
X95805619Y-158456380D02*
X96424666Y-158456380D01*
X96091333Y-158837333D01*
X96234190Y-158837333D01*
X96329428Y-158884952D01*
X96377047Y-158932571D01*
X96424666Y-159027809D01*
X96424666Y-159265904D01*
X96377047Y-159361142D01*
X96329428Y-159408761D01*
X96234190Y-159456380D01*
X95948476Y-159456380D01*
X95853238Y-159408761D01*
X95805619Y-159361142D01*
G04 #@! TO.C,C1*
X162627333Y-131593142D02*
X162579714Y-131640761D01*
X162436857Y-131688380D01*
X162341619Y-131688380D01*
X162198761Y-131640761D01*
X162103523Y-131545523D01*
X162055904Y-131450285D01*
X162008285Y-131259809D01*
X162008285Y-131116952D01*
X162055904Y-130926476D01*
X162103523Y-130831238D01*
X162198761Y-130736000D01*
X162341619Y-130688380D01*
X162436857Y-130688380D01*
X162579714Y-130736000D01*
X162627333Y-130783619D01*
X163579714Y-131688380D02*
X163008285Y-131688380D01*
X163294000Y-131688380D02*
X163294000Y-130688380D01*
X163198761Y-130831238D01*
X163103523Y-130926476D01*
X163008285Y-130974095D01*
G04 #@! TO.C,J1*
X162548666Y-145594380D02*
X162548666Y-146308666D01*
X162501047Y-146451523D01*
X162405809Y-146546761D01*
X162262952Y-146594380D01*
X162167714Y-146594380D01*
X163548666Y-146594380D02*
X162977238Y-146594380D01*
X163262952Y-146594380D02*
X163262952Y-145594380D01*
X163167714Y-145737238D01*
X163072476Y-145832476D01*
X162977238Y-145880095D01*
G04 #@! TO.C,J2*
X148931380Y-114708333D02*
X149645666Y-114708333D01*
X149788523Y-114755952D01*
X149883761Y-114851190D01*
X149931380Y-114994047D01*
X149931380Y-115089285D01*
X149026619Y-114279761D02*
X148979000Y-114232142D01*
X148931380Y-114136904D01*
X148931380Y-113898809D01*
X148979000Y-113803571D01*
X149026619Y-113755952D01*
X149121857Y-113708333D01*
X149217095Y-113708333D01*
X149359952Y-113755952D01*
X149931380Y-114327380D01*
X149931380Y-113708333D01*
G04 #@! TO.C,U1*
X136652095Y-88054380D02*
X136652095Y-88863904D01*
X136699714Y-88959142D01*
X136747333Y-89006761D01*
X136842571Y-89054380D01*
X137033047Y-89054380D01*
X137128285Y-89006761D01*
X137175904Y-88959142D01*
X137223523Y-88863904D01*
X137223523Y-88054380D01*
X138223523Y-89054380D02*
X137652095Y-89054380D01*
X137937809Y-89054380D02*
X137937809Y-88054380D01*
X137842571Y-88197238D01*
X137747333Y-88292476D01*
X137652095Y-88340095D01*
G04 #@! TO.C,U3*
X118364095Y-98378380D02*
X118364095Y-99187904D01*
X118411714Y-99283142D01*
X118459333Y-99330761D01*
X118554571Y-99378380D01*
X118745047Y-99378380D01*
X118840285Y-99330761D01*
X118887904Y-99283142D01*
X118935523Y-99187904D01*
X118935523Y-98378380D01*
X119316476Y-98378380D02*
X119935523Y-98378380D01*
X119602190Y-98759333D01*
X119745047Y-98759333D01*
X119840285Y-98806952D01*
X119887904Y-98854571D01*
X119935523Y-98949809D01*
X119935523Y-99187904D01*
X119887904Y-99283142D01*
X119840285Y-99330761D01*
X119745047Y-99378380D01*
X119459333Y-99378380D01*
X119364095Y-99330761D01*
X119316476Y-99283142D01*
G04 #@! TO.C,U2*
X118872095Y-124002380D02*
X118872095Y-124811904D01*
X118919714Y-124907142D01*
X118967333Y-124954761D01*
X119062571Y-125002380D01*
X119253047Y-125002380D01*
X119348285Y-124954761D01*
X119395904Y-124907142D01*
X119443523Y-124811904D01*
X119443523Y-124002380D01*
X119872095Y-124097619D02*
X119919714Y-124050000D01*
X120014952Y-124002380D01*
X120253047Y-124002380D01*
X120348285Y-124050000D01*
X120395904Y-124097619D01*
X120443523Y-124192857D01*
X120443523Y-124288095D01*
X120395904Y-124430952D01*
X119824476Y-125002380D01*
X120443523Y-125002380D01*
G04 #@! TO.C,RN2*
X107018380Y-112450476D02*
X106542190Y-112783809D01*
X107018380Y-113021904D02*
X106018380Y-113021904D01*
X106018380Y-112640952D01*
X106066000Y-112545714D01*
X106113619Y-112498095D01*
X106208857Y-112450476D01*
X106351714Y-112450476D01*
X106446952Y-112498095D01*
X106494571Y-112545714D01*
X106542190Y-112640952D01*
X106542190Y-113021904D01*
X107018380Y-112021904D02*
X106018380Y-112021904D01*
X107018380Y-111450476D01*
X106018380Y-111450476D01*
X106113619Y-111021904D02*
X106066000Y-110974285D01*
X106018380Y-110879047D01*
X106018380Y-110640952D01*
X106066000Y-110545714D01*
X106113619Y-110498095D01*
X106208857Y-110450476D01*
X106304095Y-110450476D01*
X106446952Y-110498095D01*
X107018380Y-111069523D01*
X107018380Y-110450476D01*
G04 #@! TO.C,RN1*
X102446380Y-130230476D02*
X101970190Y-130563809D01*
X102446380Y-130801904D02*
X101446380Y-130801904D01*
X101446380Y-130420952D01*
X101494000Y-130325714D01*
X101541619Y-130278095D01*
X101636857Y-130230476D01*
X101779714Y-130230476D01*
X101874952Y-130278095D01*
X101922571Y-130325714D01*
X101970190Y-130420952D01*
X101970190Y-130801904D01*
X102446380Y-129801904D02*
X101446380Y-129801904D01*
X102446380Y-129230476D01*
X101446380Y-129230476D01*
X102446380Y-128230476D02*
X102446380Y-128801904D01*
X102446380Y-128516190D02*
X101446380Y-128516190D01*
X101589238Y-128611428D01*
X101684476Y-128706666D01*
X101732095Y-128801904D01*
G04 #@! TD*
M02*
